<mxfile host="app.diagrams.net" modified="2021-09-20T09:54:02.226Z" agent="5.0 (Windows NT 10.0; Win64; x64) AppleWebKit/537.36 (KHTML, like Gecko) Chrome/93.0.4577.82 Safari/537.36" etag="nqIR_2uW9no-fLEpq6BV" version="15.2.9" type="github">
  <diagram id="0RYhE88sc8SObK40f35A" name="Page-1">
    <mxGraphModel dx="868" dy="482" grid="1" gridSize="10" guides="1" tooltips="1" connect="1" arrows="1" fold="1" page="1" pageScale="1" pageWidth="850" pageHeight="1100" math="0" shadow="0">
      <root>
        <mxCell id="0" />
        <mxCell id="1" parent="0" />
        <mxCell id="5xVn5uCUqp0vW0Apt2cC-1" value="" style="shape=image;verticalLabelPosition=bottom;labelBackgroundColor=#ffffff;verticalAlign=top;aspect=fixed;imageAspect=0;image=data:image/png,iVBORw0KGgoAAAANSUhEUgAAApwAAAFXCAYAAAAPjJ5PAAAAAXNSR0IArs4c6QAAAARnQU1BAACxjwv8YQUAAAAJcEhZcwAADsQAAA7EAZUrDhsAAGHVSURBVHhe7Z0HuNTE/r9/KooNC4oVUcRLuVawK7YrdgXsFUQUUf8gCIooVUUERLB3RewFGyCCIhcVG4oKVsReUMGGWBGc//OOmdycPcme3bOb3c3u532eeeAk2dTJzJvvTCb/Z4QQQgghhIgRCacQQgghhIgVCacQQgghhIgVCacQQgghhIgVCacQQgghhIgVCacQQgghhIgVCacQQgghhIgVCacQQgghhIgVCacQEbzzzjvmiCOOMLvssouSkpJSQdKBBx5oZsyY4ZVCQpQPEk4hIjjmmGPM//3f/ykpKSkVNCGeQpQbEk4hIthrr71CKwMlJSWlONOmm27qlUJClA8STiEiCArnCy+8YD7//HMlJSWl2JKEU5QzEk4hIggKJ5WBEELEyQorrCDhFGWLhFOICCScQohCIuEU5YyEU4gIJJxCiEIi4RTljIRTiAgknEKIQiLhFOWMhFOICCScQohCIuEU5YyEU4gIJJxCiEIi4RTljIRTiAgqQTg/+ugj06hRI/84U9M+++xjbrzxRr8iJC233HJmxRVXNOutt55p166def311+263n//fbPxxhtX+X0wtW/f3vz55592Wfj444/NWWedZbe/yiqrmM0339z06tXLfPnll3b+0qVLzbHHHltlHWyT7T3wwAOmTp06dtqOO+5oRo0aVWUfg4npt912m3nttdfMTjvtZNfBb/v372+3sWzZMtOlSxd7XMsvv7y54oor7PaBr00xj31ca621zAEHHGAmTpxoHn30UTN79my7bbcdfn/OOeeYv//+2yxcuNCf17x5c/PVV195a/yHJUuW2PPKMa+zzjrmjDPOMM8995yZNWuWeeaZZ8waa6zhr3f11Vc3Tz31lP2dm8e2OPeZHM/IkSPN4MGD7f/dOlPTHnvsYa677roq55Dle/fuXeUYSVtssYUZPnx4jecb0h1nWH7Zd9997e8WLFhgTj/9dFO/fn27vRtuuMFMnjzZfPvtt3Z+ueLOqYRTlCMSTiEiqJQI53fffWePFcEYOHCgFaY//vjDit2gQYPs30jWmmuuaQXhvffes0KAHCI622yzjZk/f75dF0LQunVru65LL73U/va3334z//3vf+26nXC+8sorVkJYH/K2ePFi88gjj9i/t9xyS/P222/b5f766y8rcaxv11139YWD9SJfiNWiRYvstGnTpllBQWxefvllX/yQlYceesgu88svv9gvSK266qr2eB577DE7ne1cffXV5pZbbrH/B+atu+66tvK/5557zE8//WQ+++wzK29bbbWV+eSTT6w0cfzI3UEHHWTX70DmDz74YPPSSy/ZfQnCMW+22Wbm8ccft/v/xBNPmB122MH+jTDee++9ViwREPbL/Z5/H3zwQXPiiSfaa5DJ8SB9t956q5k0aZK9rpdffrk9n8gz5/2DDz6w14bjmzp1qj2HSO7DDz9st8f1Y3sc4/7772+Xg0zOd7rjhG+++cbstttudt3dunWz+YN9R0z33HNPM2/ePLvMiBEj7Nd3UsW93JBwinJGwilEBJUinFTyhx9+eBXhTIWIVIMGDawQIlmASCEb66+/vo32we+//24OPfTQKsKZyg8//GBlAlkl+uaW4V/Egkr3kEMOsTLEtGHDhvmC9Ouvv9plAeEbPXq0/3uikRtuuKEvQGEgaPyGyB3bJ/o4d+5cOw+BIvoGHGOTJk1MvXr1zIQJE+w0B0I4duxYK59w//33W+Ej0ohIO5AqxDEV9rdnz542cofsOWbOnGn3Abgmp556qj3uNm3a+JLH9KFDh1rph0yPJ0hQOIPnE9w5RCT52AGwvzxc8Jvjjz/eHj/UdL4zOc6w/MJDRcuWLc0JJ5xgBRmYjvS76He5IuEU5YyEU4gIKlE4BwwYYKNUSAwROkdQOJEdlkFyaFpHDFxkLygQQ4YMsREqBIdtOKZMmWIjaGGi8uyzz9qm67XXXts8//zzVjRqI5wzZsywUVkXSXOwn9dcc42NyB544IE2snbEEUeYn3/+2Rc01nfxxRfbbe68887m+++/934dDus87LDD7LpOPvlkK0lEHy+66CI/+poK5wS5IJqLsDqxCvLmm2+ahg0b2u4GTlw5P7fffrt/zJkcTypxCGfU+a7pOMOEkwcNJJu8xbHQFcIdb7kj4RTljIRTiAgqTTjdsZIQnWBUyglncJmVV17ZCl9QIpxABJdL7bt57bXXWsHYZJNNrJAGmTNnjtlggw1stO6uu+6yopGtcLrtUnm7voQOJ2jsM9tq3LixFRuihk8//bQVNOa1bdvWrgPhoUm6JpA7JJk0ffp0u+9EgKOgaZh+kwgiiSZ6ZM3JHPD/Cy+80B4Hzc6ffvqp7TsZFOBMjieVTITTncNgYj/DhNPNDzvfNR1nVESchxIixqx3pZVWstfBRW7LGQmnKGcknEJEUIkRTl48+frrr82VV14ZGeGkbx9ig0C4iJ4jKBCXXHKJlYTUCCeCxHykNlU433rrLSucVLy1FU4ibojW+PHjIyOcbp/vvvtus9pqq9nfnH/++TaCyDaIFnLdeTEneHxRcHydO3e2+0lUlG24vqBRII50YeC8ci5plh8zZow39x94sapFixZWuuiricwGyeR4Uokjwhl1viHdcUYJJyDQRx55pKlbt679XdOmTf2uBOWKhFOUMxJOISJQH87/ERTOd9991/a9JJLGiyruDWpIJxAOXhxBOhCV1Ciga1Jnvfyf3weFE8Fy0M+SaKnbRlCA0vXhDAoax04/Qyp6tklUEKHi7Xkkh7fAeakqE9gm2w7KWia4F7CIGDMqQBCOjWglx0+k8Mcff/Tm/EMmx5NKHMIZdb6DhB1nJvmFl9dYnmMiL5QzEk5Rzkg4hYhAwvk/Ul8aog8nb6MjZUQD6TMI6QTiww8/NK+++qp9KYShdqhcg0MQObliOoLhXpRxwzLtvvvu9oUjBzIVbMJNJ0C8Jc/bzqmCBogQLzEFhx/ibW3El8RvgxC5ZL47ZgcivtFGG1lZe/HFF72p1UHYbrrpJv+Ne+BNcN5oRypTYVmOn31058SR6fEEKYRwcs7oV1rTcYblF37HdWWIJwfRTs4t/WLLGQmnKGcknEJEUCnCSQQPQUEeu3btWkVeHAypQ8QMuXD9Anl7m6F7iFghisgEcsHwRayre/fuVs6QCt5M5uUiJ2JPPvmkP+QQ/+e3NMkitIgFLww53njjDTudbSEwvFRC1Ovoo4/2xwAFJJA+lIgW+4a8IKi8rHLSSSfZ6CBN+HQDoKk6CPvXrFkzX9Dot8mQUDTnbrfddrYpm+NAmokgIkepfTuRLM4P23fDE4WBsDHGJMLHuUQaWT/bv+yyy7yl/oHzx34gZNtuu221fJjp8TjYZyePNP3TfSJI8BwyTBVw3G5YJPbZvQhV0/mmKb2m40zNLzz80O+zVatW5txzz7Xnm+3xYMLwSplEUpOMhFOUMxJOISKoBOEMG/g9NZKWOvA7/3dvHHfq1MnKAqljx45WDIPrCiYq0WC/UJrTkRGkjvmIK38jS6kgN0RUeWObPopEQIP9ExlvMriPwcS+0f8R2UVymYYYBpvzkSWG3XEyDUTYePOaCBwvsNANYPvtt7d9S4OyyW8ZK5TtBLeJCLpoYBCmcU4ZQumUU06xUVSuAc3FiLeDSCXDA7l1kujGQB9a4DxlczxEMzm/wfXRX9YNaUW/yuA5REprM/C7O9/IY7rjJFKeml8Y+N1FRpFlXpbieiPHvEjEcZUz7pxKOEU5IuEUIoJKiXAWEwTCRfCIaqVG3ISoJCScopyRcAoRgYSzMHBu+foMle1xxx1nI1/B/ntCVAoSTlHOSDiFiEDCWTg4v/Qf5SUUop30mwy+bCJEJSDhFOWMhFOICCScQohCIuEU5YyEU4gIJJxCiEIi4RTljIRTiAgknEKIQiLhFOWMhFOICCScQohCIuEU5YyEU4gIgsK5//77m1NPPVVJqcbEN9UZy5QBzRl/MmwZJaWw5MobCacoRyScQkTA4OKuAlBSUlIqVGrcuLFXCglRPkg4hYhgxIgRoZWBkpKSUpzpzDPP9EohIcoHCacQaeA73nzrW0kp08TnIJ048A3ysGWUlKISnwIVohyRcAohRB4ZO3asL5yDBw/2pgohRGUj4RRCiDwi4RRCiOpIOIUQIo9IOIUQojoSTiGEyCMSTiGEqI6EUwgh8oiEUwghqiPhFEKIPCLhFEKI6kg4hRAij0g4hRCiOhJOIYTIIxJOIYSojoRTCCHyiIRTCCGqI+EUQog8IuEUQojqSDiFECKPSDiFEKI6Ek4hhMgjEk4hhKiOhFMIIfKIhFMIIaoj4RRCiDwi4RRCiOpIOIUQIo9IOIUQojoSTiGEyCMSTiGEqI6EUwgh8sD1119vRo4caY477jhfOPfff387jbRkyRJvSSGEqDwknEIIkQeOOOIIXzRTU6tWrbylhBCiMpFwCiFEHrjvvvtCZZN02WWXeUsJIURlIuEUQog88PPPP5u6deuGCue8efO8pYQQojKRcAohRJ5o3759NdncbrvtvLlCCFG5SDiFECJP3H333dWEc8iQId5cIYSoXCScQgiRJ3766Sez0korVRHOuXPnenOFEKJykXAKIUQeOeyww3zZ3Hrrrb2pQghR2Ug4hRAijwQHfr/44ou9qUIIUdlIOIUQIo/8+OOPZsUVV7TC+e6773pThRCispFwCiFEnjn44IPNlltu6f0lhBBCwilKmoULF5qBAweaTp06KSklJu2+++5m2223tV8f2mabbWy/zrDllJTiTNdcc41ZtmyZV5oKUVwknKKk6dGjh98fTklJSUkpuzR+/HivNBWiuEg4RUlz6KGHhhaiSkpKSko1p5EjR3qlqRDFRcIpSpqgcI4ePdpMmTJFSSkxafLkyebmm2+2/4bNV1KKI7Vr107CKUoOCacoaYLC+c4773hThRBCRHHddddJOEXJIeEUJY2EUwghskPCKUoRCacoaSScQgiRHRJOUYpIOEVJI+EUQojskHCKUkTCKUoaCacQQmSHhFOUIhJOUdJIOIUQIjsknKIUkXCKkkbCKYQQ2SHhFKWIhFOUNBJOIYTIDgmnKEUknKKkkXAKIUR2SDhFKSLhFCWNhFMIIbJDwilKEQmnKGkknEIIkR0STlGKSDhFSSPhFEKI7JBwilJEwilKGgmnEEJkh4RTlCISTlHSSDiFECI7JJyiFJFwipJGwimEENkh4RSliIRTlDQSTiGEyA4JpyhFJJyipJFwCiFEdkg4RSki4RQljYRTCCGyQ8IpShEJpyhpJJxCCJEdEk5Rikg4Rcnx+++/m/nz59vUpk0bv+CcPn26nbZw4UJvSSGEEPD333/75ebQoUP9cnPgwIH+9GXLlnlLC1F4JJyi5Pjkk0/8wjIsnXXWWd6SQgghHC1atAgtM0mNGze2UipEsZBwipJkhx12CC00SdOmTfOWEkII4RgwYEBomUk677zzvKWEKA4STlGSDB8+PLTQbNCggVm6dKm3lBBCCMecOXNCy03SzJkzvaWEKA4STlGSfPjhh6GFZteuXb0lhBBCBKHJvGnTptXKzUaNGqk5XRQdCacoWVq2bFmt4Jw6dao3VwghRCr9+vWrVm726tXLmytE8ZBwipIl+KYlad111zV//fWXN1cIIUQqb7zxRpVyk/TSSy95c4UoHhJOUbJ88MEHVQrNLl26eHOEEEKEQdP5Flts4ZebDRs21HBIoiSQcIqSZtttt/ULzilTpnhThRBCRNG3b1+/3OzZs6c3VYjiIuEUJc0ll1xiC8369eubJUuWeFOFEEJEMWvWLF84Z8yY4U0VorhIOEVJ895779lCs3Pnzt4UIYQQ6aBZnYHeN9poIzWni5JBwlkkxo4da78KwXAVSunTiiuuaMffDJunVDW1b9/eLF682MtlQpQXvBDTunXr0LyvVDXVq1fPrL766qHzlKqmnXfe2bz66qteLhNxIeEsEuuss47f5KGklM80ZswYL5cJUV6cdNJJoXleSSnXdPTRR3u5TMSFhLNILL/88qGZXkkp13TFFVd4uUyI8uKQQw4JzfNKSrmmfffd18tlIi4knEXCCSdDVvCpRiWlXNJVV13lF5wSTlGuBIXzrbfeCr0XlJQyTfPmzfPzk4QzfiScRcIJ56abbupNEaL2XHvttX7BKeEU5UpQON99911vqhC14+OPP/bzk4QzfiScRULCKfKJhFNUAhJOkU8knIVFwlkkJJwin0g4RSUg4RT5RMJZWCScRULCKfKJhFNUAhJOkU8knIVFwlkkJJwin0g4RSUg4RT5RMJZWCScRULCKfKJhFNUAhJOkU8knIVFwlkkJJwin0g4RSUg4RT5RMJZWCScRULCKfKJhFNUAhJOkU8knIVFwlkkJJwin0g4RSUg4RT5RMJZWCScRULCKfKJhFNUAqUunO+//77ZeOON/X0k7bXXXubII480zZo1M8stt5zZY489zLfffmuXf/zxx83KK69sl2vTpo0ZOHCgXzeQ+P8aa6xhdt11V3PLLbeY33//3f6O/6+wwgpVlrv00kvNYYcd5k9z01n/5ptvbs477zzz/fffmz/++MO0a9euynLBxP7PnTvXbsfxzjvvmC5duphGjRqZtdZayxxwwAFm4sSJ5tFHHzVvv/22ad26dei6SOzDRRdd5K2ptJBwFhYJZ5FwhYqEU+QDCaeoBJIQ4fzmm2/MbrvtZuWyW7du5s8//7TTb7jhBrPOOutYUTz77LP96a+88opd7qeffjJ///23eeCBB8yqq65qxW/OnDlm1qxZVlrr1KljTj/9dPPbb7/Z302dOtXUr1/frL766uaxxx6zv2WdvXr1svULUsmyrIP9YRrb4ZOOf/31ly+3rHvRokV22gcffGD69etnP/noYN3rrruuravuueceu5+fffaZGTx4sNlqq63M7NmzzcUXX2x/y3oQZ9Z75ZVX2v2ZMGGCufnmm721lRYSzsIi4SwSEk6RTyScohJIgnAShTz00ENtGU/UERGE+++/396nyNtqq61m7rrrLjv966+/thFLt9xzzz1no4gIJxFTeOONN8yGG25oRfThhx+204g6Mg2Jffnll+00uPzyy+22EU6imax3yJAhdtqBBx5ofv31V7scAoz8OuEMg+03adLE1KtXz4pjkGXLlpmxY8da+XQsXry4inCWOhLOwiLhLBISTpFPJJyiEki6cLLPw4cPNyuuuKLZbLPNzJtvvpmRcCKJyCJR044dO9poZCbCye9o8t59992t5N56663eUlWF84svvjBXX321+fDDD725xu4PkUvWtfPOO9vm+JqQcIp0SDiLhIRT5BMJp6gEki6cCCRSdtRRR1l53G+//awQ1iScRBNPOeUU+xsXkaxJON15ItGHc8aMGf42wAmnWya17ybR0bZt29p5RxxxhFmyZIk3JxoJp0iHhLNISDhFPpFwikqgHIQT6O/YokUL2y/z5JNPNtdff32Nwtm5c2crnHvvvXdGwkmE85prrjF169Y1q6yyiu1/GSQY4aRZ/KqrrqoS4XRRVc61a56vCQmnSIeEs0hIOEU+kXCKSqBchBPGjx9vxRLp6927d1rhZJ28gY5wdujQIeMm9QULFvhN8TvuuKN9oclRUx9OJPess86yv91pp53Md999582JRsIp0iHhLBISTpFPJJyiEign4eRtcd4Upz/nOeeck1Y4aepu3LixfWlo3LhxdlqmLw1Nnz7dLkM0deTIkf52ooST/UeGEU7ehGdfSP/973+9Jf4B6WX+zz//7E2RcIr0SDiLhIRT5BMJp6gEkiCcjLHJuJlEBrt3726HBqJ5mnEwGWIIkXP8+OOP9pgYyggRJD300EP2BZ/11lvPDpn06aefmmOOOcYKY9euXasMi7T22mvbN8gZzxPoZ+mGRdpzzz1tVBIxZBgmplHfPPPMM3afGP6Iadttt5358ssvrQCzrf79+5sRI0bYfWF9gwYNss3yLIe8IqQ0vffs2dMKdbBv51dffWW23357u97zzz8/o36fxUTCWVgknEUiSjh5UuVp1N0EFFrc7E2bNrXNLhQMEDZ4b4MGDcwFF1xQpSM4v+cJmsKL5V9//XX7e56ceYIO/j6Y2rdv748TBxSMvF257bbb2gKO8ddGjRplO6JTCPEvhV/YukiMF/fCCy94a/sfHC8FI+ukb9LTTz9th9+g0KYJyP2e43BRgIULF/rzmjVrZgvEbbbZxg5wzJAjFKhA4de8eXO7HMd/22231biPjIG3ySabVJlOBODMM8/0rxmJc8pbnZmeQ5q2GEOPbWyxxRY2ujB58mTz+eefh17H1157zRbWN954o+3wT54444wzbPSDcflSkXCKSqDUhTOsXKX8+M9//mP/TxnCEEUuygi8NERfS0QUgQuWM5R7yCeDxd9xxx1+P8pMB36nfqF/JoJIWck01ocQB5cLJsTWDdkEiCiDvBO1pRwlyopUskxQKHnjfv3116+yroMOOsgfhqkUkXAWFglnkYgSTvjoo4/Mv//9b1ugMGAu4oRsIp4InxuUl5vdPaUynYKFgozCYc0117QF33vvvWdlh6deChLEbP78+fb3SB1fiHCFFb/l6ZmmE5p6nCzx1EsBRUHDUyuS9MMPP5gHH3zQbLnllubee+81M2fOtJ3OEVNkCWmi8KEQYqBgmnJYJgjr4am5b9++dn00EZ1wwgn2KZ7Cl8Kb/aXQpeD65ZdfvF/+c44OPvhg89JLL9n9Zjtbb721PZZWrVrZdQPrZX3Mz3QfgwM3I3kU8myDMeeQWn7z6quv2vVncg6JMLAexJprx/qJIOyyyy722oZdR+ArHgydQvSCJq8nnnjC7LDDDn40I4iEU1QCSYhwiuQg4SwsEs4igVyQycOEk/HOEDyEkydZQLYQLCSIT4y5J8uwfjhEwJCpYB8gxIwoGbLElyEgqq9REOTp+OOPt8vQLIM8BWG9U6ZM8f76B7d9J3NR8Dv26c477/Sm/BNJ5ZhdsxP9nhBd17zkQLoQXQfHRDTQyV+nTp3svrMepiPdQdLtY/C88Ek2d16IvvJVDyTQSWEm5xApbdmypZVpF6FgOd4adRHr1OvIfJqsiIbyRqsDIZ42bZr31/+QcIpKQMIp8omEs7BIONNApR9XQhzJ5JkKJxCdQ2yQEKKOUJNwEuGkCZoIKc3ASI+LFAZliWYeom90OA82pb/44otWComY0nSeCZkKJ1FGRJJm7gEDBlR5g9LBvrq3Mxk+BGFDHhHBYEd3hJOIIAK80UYb2UgkEkZzUKGEM+ocuo70nH/Gs+O43TodYdeR9TCNKDLi7WQ1jKBwuhcD4khC5EpYvso08dDt8rmEU+RKUDjp9hCW5zJNomYknCFMmjTJbLDBBn5GjDMhc6lECecjjzxiVlppJfsb91ZiOuEMbgcBGz16dBVpcbIUXC617yZN+qy/YcOGVb6vm45MhZMoLX1OETGEkv6NCF7wrUcgooeUkpBe+g4hlkGccHLjc044Xq7h888/X2vhDJ6XYAoTzuD81HMIRHORa+ZzDRHP4CDLYdeR5nb6bnFuSPSbJbIbfOnAQRN9cB/iSog1LzAIkS30tea+DMtXtUkSTpErQeHMNdE9jOCOiEbCGQL9BcMyVByJfpmpRAknQpWNcBLh5Lu7DKcRjBA6gtG5Sy65xApQanTORVVdtDQTMhVOoImevqD0XWQ7pJNOOqlKR3P2h0GPmccn1uhgn9q074QTaErnqxxueSq6QkQ4o86hY86cOebII4+015zrwYtg7pyGXUcgL9AXlH3lN3QvGDNmjDf3f/BCUlj+iivxooMQmcL9StkVlpdqm4JdbISoDbw3EJa3apsIbohoJJwhUOkHMxHRvXwnt25EIpUo4SQzMy2bJnWiADSxEkWkWfypp56yy0BQlqL6H/ICEpKzxhprhPYdDCMb4XQgaHfffbc9N7xpnvqCkXt7P+pt96BwAt8GdsNz8KJNMftwpsJIAfvss4+9bsOGDbPTooTTwf7z4hcRIn6bCtFrl6e4zqn5LR/JrZ+kyl5kA/dJMP+E5a9MUjBCqginyJVghJNAQFieqym535PUfz49Es4QgsLp3nbONwgK68+0DyeRyWOPPdZGuU477bSsXhoizM/LNPyWr064Jut0ssQwGryJjegQJWQZ3qRObc5F1oIvtUCmwsmb3Kn9QumLiHCmSiWVC30zEU76laaSKpyAILMfvLBTDOF055BRARiSif6kDqKdHA/rh9TryHm+6aab7AtHDiK39GGjmT2VQrw0dNxxx/nbkHCKbAgKJyNw1Ba9NCTyST5eGrruuuv8dUg40yPhDKHYwvnJJ5/YF0VYhr55DNnDmJfITnBYJJqpgoP3un2lDypRLiKCjNsIjG1JlJIIwdChQ628IDOILSLKAMWsj4qB6CIvFzmxY1xLvmhBH0rEhjfJGW6I/p0s9/XXX9vlHAzfw7b4OkXqG+xB6I/YrFkzO74cAxSz//Rt3G+//ew2giCnHA/ngMGTgyBnNMtfeOGFVZrimU50F2FOFc50+xg8L3zajegrIsnb9K5vKC/+pC4bdQ7pi8lQTeeee66VUISSgglxJXIbdh3Zd5rJDzjgAHsNeXkKOed8XXbZZXbbQSScopQpZ+GkbAkbY5f9K8ZYws8++6wtR4PTWSflBmWem8b+0H2pbdu2VZYNJoIWrq951HFSXuVjLOFiIOEsLBLOEIopnK7p2G2fQoHmcAolXrBxckfEM5OB3/m/e8OZoYJYH6ljx462MAn+PpjYL8a6dNDXEPmi4FhllVXs/D59+lTrJM3nzNyxkfg/A6SHgUTSZM9vWB/yd+KJJ/rdBYDCmUKafXbr5P/0R0XKmM+A9G6bXDsE3YGoUdAGhTPdPiLz+Rr43Z1DIpxEK+nOwPieDLyMBCO6VMRh1xFhpaBG7OiPyrlp1KiRbYLnYSEVCacoZcpVOHlYTDfGbrHGEg6O7cs6CWIA+4MsMp1yglYXjoF+4kxzLSxMo+WKdXBcNR1ncHu1HUu4GEg4C4uEM4RiRziFyBYJpyhlylU4MxljtxhjCYPrpkMXHNdixDqQWT4CwlfVHGFds4Jkcpyp62B+NmMJFwMJZ2GRcIYg4RRJQ8IpSplyFc5MxtgtxljCUFvh5IVLWm/o/uMoxFjCxUDCWVgknCFIOEXSkHCKUqZchRNqGmMXCj2WMDgBdOcrmKKE080P9t10xD2WcDGQcBYWCWcIEk6RNCScopQpZ+GEdGPsQqHHEgYngNlGOOl/ST/RYITTEedYwsVAwllYJJwhSDhF0pBwilKm3IXTETbGrqOQYwlDbYUzKItRxDGWcDGQcBYWCWcIEk6RNCScopQpV+HMZIxdB/tbqLGEIR/CyXUbP368fTEo7rGEi4GEs7BIOEOQcIqkIeEUpUy5CmdNY+wGKeRYwjTXu2GKGJbJDVNEn0s3LBJjO7P+4LKMA4xcIpYMT9e/f387/BHT0h1n6jqoN1l3NmMJFwMJZ2GRcIYg4RRJQ8IpSplyjnBGjbHr3uLm30KOJcyYmPka+J1IKC84FWIs4WIg4SwsEs4QJJwiaUg4RSlTrsIpko2Es7BIOEOQcIqkIeEUpYyEU5QiEs7CIuEMQcIpkoaEU5QyEk5Rikg4C4uEMwQJp0gaEk5Rykg4RSki4SwsEs4QJJwiaUg4RSkj4RSliISzsEg4Q5BwiqQh4RSljIRTlCISzsIi4QxBwimShoRTlDISTlGKSDgLi4QzBAmnSBoSTlHKSDhFKSLhLCwSzhAknCJpSDhFKSPhFKWIhLOwSDhDkHCKpCHhFKWMhFOUIhLOwiLhDEHCKZKGhFOUMhJOUYpIOAuLhDOEQgoniUyvpJRL6t27t5+fJJyi1IhDOJ944onQe0FJKdP0zDPP+PlJwhk/Es4QCi2cSkr5TBJOUWrEIZxKSvlMEs74kXCGUAjhbNiwob8NJaV8pnvuucfLZflFwilqS76Es0uXLv56lJTymU488UQvl2WHhDNzJJwhFEI4n3zySXPAAQeY1q1bKynlLfXq1ctW7nEg4RS1JV/C+dFHH9l8GJb3lZRqm8hTc+fO9XJZdkg4M0fCGUIhhFOIpCHhFLUlX8IpRKkh4cwcCWcIEk4hqiPhFLVFwinKFQln5kg4Q5BwClEdCaeoLRJOUa5IODNHwhmChFOI6kg4RW2RcIpyRcKZORLOECScQlRHwilqi4RTlCsSzsyRcIYg4RSiOhJOUVsknKJckXBmjoQzBAmnENWRcIraIuEU5YqEM3MknCFIOIWojoRT1BYJpyhXJJyZI+EMQcIpRHUknKK2SDhFuSLhzBwJZwgSTiGqI+EUtUXCKcoVCWfmSDhDkHAKUR0Jp6gtEk5Rrkg4M0fC6UGB+O2339q06667+hno9ddft9N+/PFHb0khKoc///zTvy/at2/v3xdPPvmknfb99997SwpRnUWLFtl88tlnn/l5p2nTpn6e+vXXX70lhUgOf//9t5+Hhw0b5uftwYMH+9OXLVvmLS0cEk6POXPm+JkmLPXp08dbUojK4ZtvvjHLLbdc6D1B6tChg7ekENUZMWJEaL5xadq0ad6SQiQHhLN58+aheZq02Wab2WVEVSScHmQOnrzDMg9p5syZ3pJCVBbBLiap6fHHH/eWEqI6H3/8cWi+ITVo0MD89ddf3pJCJIv+/fuH5mvSueee6y0lgkg4A/Tr1y8082y66aZ6WhEVy7XXXht6X9SrV892RREiHdtvv31o/unatau3hBDJY/bs2aH5mqQ+7uFIOAO88cYboZmnd+/e3hJCVB7z588PbVY/4YQTvCWEiOayyy6rlndITz/9tLeEEMmDINS//vWvavm6UaNGClBFIOEMQCbZYostqmWgl156yVtCiMpkjz32qHZfPPLII95cIaKZN29etbyzzjrrqDldJJ4LLrigWt7u1auXN1ekIuFMoW/fvlUyzyabbKKnFVHxXHXVVVXui9VWW8389ttv3lwh0rPddttVyT+nnXaaN0eI5MIoNsF8TXrxxRe9uSIVCWcKs2bNqpJ5evbs6c0RonL58ssvq9wXxx57rDdHiJoZMmRIlfwzZcoUb44QyYVg1Oabb+7n64YNG2o4pDRIOFMgAzVu3NjPQC+88II3R4jKZrfddvPvi3HjxnlThaiZuXPn+nmnfv36ZsmSJd4cIZLN+eef7+ftHj16eFNFGBLOEBhzk8yz0UYb6WlFCI/Ro0fb+2LVVVfVgN0ia7beemubfzp37uxNESL5vPrqq75wzpgxw5sqwpBwhsCYm2Se7t27e1OEEHzmlfviqKOO8qYIkTkXXXSRzT+TJk3ypgiRfGgVZaB3BahqJi/Cyefvnn32WfPMM8+URZo6dapZb731bEQnbH6SE9eJ6yXi56233gq9BklOLVq0MAMGDAidl+REH9VS46uvvgrd16Sm22+/3b5sNnny5ND5SU6MySgygxdtws5hktPRRx9tP/0bNi/JiU905pOchXPp0qWmSZMmfkhZqfQT0qA37+Nl4MCBoedeqTTTCiusUFLNYTwY1qlTJ3RflUoz8R1tkZ6zzjor9NwplWZaaaWVzLvvvutdvdzJWThr+ga5UmkmOvGL+GjZsmXoeVcq3cSYeqVC2Ph+SqWdWrVq5V09EQXDDIadO6XSTaNGjfKuXu7kLJxvvvlmlZ3r0KGDUomm4HV67733vCso4mDbbbf1zzVNLWHXQ6n4aeWVV/avE2+blgrBN1/Zx7B9Vyp+ateunX+dGGtUpGfjjTf2z1fY+VQqjeSuEWnkyJHe1cudvArn4Ycf7k0VpcjBBx/sXysJZ7wEhfPnn3/2popS48EHH/SvU6kKJ/soSpNFixb510nCWTNOOGmqFaXL9ddf7+drCaeoFRLOwiHhTAYSTpELEs7skHAmAwmnyBkJZ+GQcCYDCafIBQlndkg4k4GEU+SMhLNwSDiTgYRT5IKEMzsknMlAwilyRsJZOCScyUDCKXJBwpkdEs5kIOEUOSPhLBwSzmQg4RS5IOHMDglnMpBwipyRcBYOCWcykHCKXJBwZoeEMxlIOEXOSDgLh4QzGUg4RS5IOLNDwpkMJJwiZySchUPCmQwknCIXJJzZIeFMBhJOkTMSzsIh4UwGEk6RCxLO7JBwJgMJp8gZCWfhkHAmAwmnyAUJZ3ZIOJOBhFPkjISzcEg4k4GEU+SChDM7JJzJQMIpckbCWTgknMlAwilyQcKZHRLOZCDhFDkj4SwcEs5kIOEUuSDhzA4JZzKQcIqckXAWDglnMpBwilyQcGaHhDMZSDhFzkg4C4eEMxlIOEUuSDizQ8KZDCScImcknIVDwpkMJJwiFySc2SHhTAYSTpEzEs7CIeFMBhJOkQsSzuyQcCaDshFObtC99trL/81yyy1n6tSpYzbYYANzxBFHmOeff978/fffdln+veSSS8xmm21mnn32WTutWHz//ffm8ssvN7///rs3JXfGjBljVlhhBXvzPfzww97U+JBwFo7aCOfLL79s1llnHf933Bt169Y1TZs2Nb179zZffvmlt+Q/+XH//fc3bdq0MQsXLvSmxk829282+5jL8cybN89ssskmdl86depkli1b5s2pmUoSTsqYFVdc0V/v8ssvb9Zee2173ilfKdsOO+wwfz5pjTXWMNOmTfPW8A833nijLbeC62F/3XUPw5V17jdcK/Zlo402Mmeffba9/nHh6hH2k3246667vDm5I+HMjnwKJ9f10ksvtdfVXQP+T57dddddzS233OLX15nk2Uzzf5AlS5bYci/4G/L2KqusYrbaaitz++23m6VLl3pL558XX3zR1K9f32736KOPNn/99Zc3JzfKKsLJhT311FPthWnXrp357rvvzL333ms23HBDs+aaa9r/A5nhoosuMptuumkswklGuPnmm81nn33mTYnmkUcesZUaUpAvqBi7du0q4SxDahvh/Oijj8y///1vWziSN7/66isrm4gn60SugHsGOdt3331jEU7WedVVV4UWlpnev9nsY9iy2dyfEyZMsIW8hDM9L7zwgmnQoIFZb731bGVFhUil2qhRIzNnzhxbgZ533nm2Qm7VqpX54osvvF9W5cknnzRrrbWWqVevnj33NUFZ/tRTT9nfIJnUG+zLlltuabfFNrO5btnC9nv27GkfjiScxSPfEU6u6wMPPGBWXXVVu27y8KxZs+xDMdf69NNPN7/99ptdNpM8m2n+D8Jv+vbta39z6KGHmgULFlhhYzvcW1OnTvWWjIcpU6aY1VdfXcIZBZmkf//+9gJRYf3xxx92+pVXXmkzCRVuJpVMLrAP999/v9l6663Nxx9/7E0Nhwq2R48edt969eqVt4JRwlm+1FY4ifTwdI5w8oQOv/zyi712CF6XLl1sARcnv/76qznjjDPMcccdFyqchbh/s7k/QcKZGTzQ8OCMcFIxk9922WUXm9+oZGD06NH22v7nP/+JzLtvvPGGWX/99c26665rZs6c6U1NDzJAJBzhfOedd+w1JrrJttq3b+/nozhgWxLO4hNHk/pzzz1nRZJ1v//++3Ya+ZMHYETU1a2Z5tlM8n8q11xzjf0NEVJ84dtvv7V1APfVrbfe6i0VDxLOGoiqsFgXGYLMyFMLFS4XzAnZSy+9ZJsc+R1PFKeccoof/aRivPvuu02LFi3sNCortsN0Lvjmm29uVlttNbuPn376qQ2xE41hv1nfBRdcYJcP48MPPzRPPPGEXS/Nm8EK0AkC6+Hfzp0728L8pJNOMj/99JNd52OPPWZat25tm6/Y/0GDBtljDhPOb775xpx88sl237bYYgt74Z1gcJPsueeeNtqFfLBNV3hngoSzcORTOIFoI/mUPDF37lx737Duf/3rX+bzzz83Q4YMsfOJXt1www1m5513Nvvss4+NHFLRH3DAAbagpdJFYIFtnXnmmTZfkmdpdiT/kXfZPusnH/73v/+1yzsyuX+5F4P7SKSAwvCmm26y96JbP4l8SWTALYusht2fVCbHH3+8rVioSCjcndhKODMjnXBybaAQwkleofsF5TXrcRGnxYsX21YtplNeN2/e3EyaNMnO+/rrr235Tf5i/zhH5EXKWQIBrJvy0UkH+fKyyy6z07kfDjzwQAlnkSmUcPLQzPWmnuzYsaMtewohnC7Cyd9EOPfYYw9bRqXzAOr3YcOG2ens70477WTL7Singaefftpss8029pjxBcpDCWcEURUWfdSocJhO3wxOOE13QSG74oorbOFIZnj88cfNjjvuaDPc+PHjbWV722232cqK9bz77ru2sKJwRTrJBPyfaTyBUEDQlJQugsI+PPPMM7Zg4cLS7+jaa6/15v4DTUP0o2jYsKF92uDC88QxefJkm2E5RvpJcXyHHHKIXZbfpArnn3/+aSNY7OP06dPNiBEj7HpoomR/t99+e9OkSRPz+uuvm+7du9sbh2PPFAln4ci3cNKlg3xCQUW3DpraqYydzFFR77fffvZhBDkbNWqUzXNvvfWWzecnnnii/R0PTKyXgumcc86xv2f6kUceafMXlTr5lsr+mGOOsfk/lUzvX/4O7iNNqjQxHXvssfbeZL8okDnm1ONJvT/ZJtJNwUtTMPcg8oCcME/CmRlB4XzllVfMnXfeaa8J/eTdg2vcwumOi8qVdZAfKfuAso0yjgrYRanIIz/++KPtXuG6NXG96VPP77p162bz9auvvmqOOuoom2hGpYImH5977rl2vVTQ3FcSzuJRKOGkDCAgRR6jeZ3rVAjhDOZtHuTIq5DOA6iLKeco395++20bTOPBP8ppKA8pK3Ef/j7ttNPstiWcEaSrsCg4mD506NC0wklTDOsBTnKHDh1sYUQfNyKhFKg8sfN0ExYFzFQ4eTphfUAGoADjKeWHH36w08AJJ5mIJyua3xHT++67z1vin+3xRENGQSIR01Th/OCDD+z+tGzZ0i5PZ2WiPHRKJuNyTHvvvbe9eciEbIObI1MknIUj38L56KOPZiSc5E/6KjloKUDE7rjjDhsJovDlPiVKSrTUNQEFyUU4g/dvqnBy7yKJzOM37AcVABVBTcLpQDDGjh1rDjroIHuOiNhKODPHCScVItfCvTREtNFRiAgncoj4sQ6uI33tgvkQGabsp/xz5eG4ceNsviTfuMg2rVXkYx6YyBtE+skzVNwnnHCCzRPkDfKImtSLTyGFk9ZG8rmrMwshnEQ4P/nkE+snHCMPczV5AHmZvyk7eSgnr0Y5DYEzAlCsm25PHKea1GsgqsJCCimMOJlUlJzMMOGk0KCphPUATYQ0Gbr9ILFuOv9SCZPJ2M8gURVaENbPyaZADK6bQs81AUGqcLqCjXA4vPbaazZ6xJua9Ivj91TqqcKJSCAUPBkhHnQV4EZCEpBR1kGFPHv2bJuhKYzJoJki4Swc+RZO95YllSuVbJRwUphSWTtc4en2hUT+4mGGAoz7hjwbpLbCmXr/pu4jBSMFMNFWKgY65ZOnuRczEU4e8vgtLQ3cS9xjPNyxPxLOzEhtUg8jqsLlvCJ9TEtXeVM5InyppPbhBKI6XEdXRpPfqOx22GEHW7YR0SYfkB8QSiLnVK5EZHkZw+2HO1ckykzyMCLNsjQ/kkcknMWnUMLJwwsP0wgn4oaIZZpnM8n/qTjhdA/wwX73lLH8HeUBQF6mbKdpnK5NlHVhTtOvXz+7f9QFdCMhX0s4ayCqwuJCkBHdSwfphJPmZtYDFEQ0o6RWtm46zYxO/hyZCCdhbQo49+TNxeSpif0mw7j9jhJOCjaiSjxhsa358+enFU6iTlQGhMp5U5cCl34gnFe2RbMQBTGRTSpmolZhQhCFhLNw5FM4ufY0Q1N40XxCn58o4aQJhoLNQR4hfwUf0MBF02m+pI9yEAqw2ghn6v2buo+si8g8+7jyyivbt9LJ01CTcLJNolcIK/cOzaUSzuzJRTi5DjT3Ua5GVd7MI2+Qv1IJE066RZEXXL6l4uf/XFciRUHhdCAYRIN22203Gyklj9BfGflzuLKfddM6QB6RcBafQgkndWnjxo2twCGJkGmezST/p5IqnJRBRO0psynnaO2J8gAH08mzuAQBgTCnAcp0HAA3YjsSzhqgggpeDCpZXkygECFq50LQmQonUDkjllTMvESBBFKZ0UeJQodoCv3ZKNRmzJhhO+XSOZcMSIHE8kEoSIgikvmCFdjEiRPtxUUE3Rhb6YSTTEqByLGRuaiMXTMP6w0KJ+eFCpNCmT6cw4cPt5mSJkSW5S1g+uYFjzsbJJyFo7bCSSXrhoohj/PAwjUnz7FONyxSpsJJHx/3shv5nvzIC3A8cRMtRGx5cYiHK/I266KwQ+x4wibPcj8FyfT+Td1HntoRZtevKUjqsqn3J9F+ClTuHZqVKBc4R65ZScKZGfR/JY9wndzLOEF4mKHPI+eWMpPrQnlDvuEBhD7mnF+6bbAOykHyE1BmUjkRxeF3qRBpRAxoxeF6kpd5scNV1NwnBAYoO4lKUbFS/nE/UBmTPymP+T/XH+GkIqdiZrmrr77avrBB1yf+pUsVdQJ5legVLw6R3yWcxSPfwknefOihh+z15yEKOaMFiLxKPqJ+DQ6LVFOezTT/B0Hy6DfPb+hvTD941s+DHcdJFJ8HvSgPoHzlfqdO5kGafstIdJTTkJdZF+N88hBHX3zytYQzBC5wcOBoEheKigXrd/0lgRPOiWQZnorpu0Bhxd9BCQVEj4vOEwEX+rrrrrMnn6cNIiNkRi6ki1iSaTipTGe/g+MEksEIV1Ohsm+EsZlGpUqGdftNZqDwIiLF3+wrb/i6ZXiJiOZvKllutD59+pjBgwdbOaWidM2kLItkknnI4IgANwW/R7B5omL/iG6yT/yGm4l1IqXuLfaakHAWjtoIp+tS4X7HteZJtlmzZjZvU5ABwkdk0S1HvyH6BZFX+dtJG5BveeGIdZAv6Ujv8jpRSPq+IbNUlu5pmxc0yIPcS7yYEYxyZnr/pu4jQkGBT75mefIwD4L0z2O7qctyP6fen9xrlAPMR0ZogkJKWS/3vNuX1Jf60lFJwkl5SX5y6+UauDfTgXKRc+vmpybOLfmQURBcuRWWEDseGIIQ/Q7+xuVtolBU8C6CSYSKPMFwWOxb27ZtbdnItafC5V9agKi4nTQgrvTpJR+zbfdAw0MYD//ke/Is9wnbTY1w5YKEMzvyKZyUbdTnrtxz+Qr5RPwoIyiHIFjXhiXyDQ8vmeR/tuug7g0b+J3IKvmUoBTLUJ5FeQAySr7mIYrybsCAAXa/o5yG7fNQTyAB8eSBimNm/3jZLrh/taWsIpwie6j0EWduVHe+SWTEsOarMCSchaO2Ec5yBmkkCkuB7M4N/3cvfBSDSotwivwi4cyOfEc4RTxIOCsc+tkR4SRKwVMOTz88wfHGvIt81YSEs3BIOKtDc+nuu+9uI1K0MBDV4umc/nrZNIPnEwmnyAUJZ3ZIOJOBhLPCQVoIxRNC52al6ZUmotQOxemQcBYOCWd16E9KnqUpiTxMkxBNnvS3KxYSTpELEs7skHAmAwmnyBkJZ+GQcCYDCafIBQlndkg4k4GEU+SMhLNwSDiTgYRT5IKEMzsknMlAwilyRsJZOCScyUDCKXJBwpkdEs5kIOEUOSPhLBwSzmQg4RS5IOHMDglnMpBwipyRcBYOCWcykHCKXJBwZoeEMxlIOEXOSDgLh4QzGUg4RS5IOLNDwpkMJJwiZySchUPCmQwknCIXJJzZIeFMBhJOkTMSzsIh4UwGEk6RCxLO7JBwJgMJp8gZCWfhkHAmAwmnyAUJZ3ZIOJOBhFPkjISzcEg4k4GEU+SChDM7JJzJQMIpckbCWTgknMlAwilyQcKZHRLOZCDhFDkj4SwcEs5kIOEUuSDhzA4JZzKQcIqckXAWDglnMpBwilyQcGaHhDMZSDhFzkg4C4eEMxlIOEUuSDizQ8KZDCScImcknIVDwpkMJJwiFySc2SHhTAYSTpEzEs7CIeFMBhJOkQsSzuyQcCYDCafIGQln4ZBwJgMJp8gFCWd2SDiTQSKEkzRgwICySOecc4455JBD7L9h85OYgtdJwhkvQeHs2bNn6PVIWurXr599qOzUqVPo/CSm5s2b+9epVIWTfQzb9yQm8g55iLwUNj9pqUePHv51knDWjBNOUtj5TGK68MILTdu2bc1pp50WOj+Jad111/WvU0kJ5+zZs/0dU0pOev/9970rKOKAyifsvCuVburbt6939YoP+xK2j0qlm1q2bOldPRFFw4YNQ8+dUummK664wrt6uZOzcP7xxx+mQYMGoTuqVJppgw02MEuWLPGuoIiDbt26hZ57pdJN48eP965e8Zk4cWLoPiqVbvp//+//eVdPRHHccceFnjul0k0vvviid/VyJ2fhhPnz55uxY8ea2267rWxS3bp17cleffXVQ+cnNd15551m4cKF3pUTcYHQIzBh1yCpqU2bNn4hdPbZZ4cuk9Q0c+ZM78qVDi+//HLoviY1de/e3c8/5KWwZZKaJkyYYJYuXepdORHF77//bh5++OHQc5jUtOuuu/r5mpaJsGWSmubMmeNdufyQF+EsRxBNMhDRWyGEsX1RXcFKBStENjz++ON+/qFvvBDlwCmnnOLn6+nTp3tTRRgSzggknEJUBUlwBWspNT+LZPDYY4/5+adXr17eVCGSTZcuXfx8PXXqVG+qCEPCGYGEU4iqIAmuYCVaJUQ2PProo37+kXCKcuHMM8/08/XkyZO9qSIMCWcEEk4hqtK7d2+/YCVaJUQ2BIWTvCREORDsm8zLfiIaCWcEEk4hqnLuuef6BSvyIEQ2PPLII37+IS8JUQ4EuxrpQTw9Es4IJJxCVOW8887zC1bkQYhs4O1kl3/IS0KUA8Fycdy4cd5UEYaEMwIJpxBV6dOnj1+wIg9CZAOVscs/Ek5RLlxwwQV+vr7//vu9qSIMCWcEEk4hqhL83KKe5EW2BIWThxchyoH+/fv7+fqee+7xpoowJJwRSDiFqErwc4sPPfSQN1WIzCDPuPxTSt+tFyIXBg8e7OdrPoAjopFwRiDhFKIqwaajBx980JsqRGaQZ1z+KaXv1guRC0OGDPHzNV/nEdFIOCOQcApRlQsvvNAvWB944AFvqhCZQZ5x+UfCKcqFYcOG+fn6pptu8qaKMCScEUg4hahKv379/IJVneNFtgSFk2i5EOXAyJEj/Xx93XXXeVNFGBLOCCScQlQl2Dn+vvvu86YKkRk8pLj8Q7RciHLgyiuv9PP1VVdd5U0VYUg4I5BwClGVAQMG+AXrvffe600VIjN4SHH5h2i5EOXAtdde6+frK664wpsqwpBwRiDhFKIqAwcO9AtWDf8hsoWHFJd/JJyiXLjhhhv8fD18+HBvqghDwhmBhFOIqgwaNMgvWO+++25vqhCZERROumcIUQ7ccsstfr4eOnSoN1WEIeGMQMIpRFWC483deeed3lQhMoOouMs/dM8QohwYM2aMn68vvvhib6oIQ8IZgYRTiKpcdNFFfsGqAY5FthAVd/mH7hlClAN33XWX8nWGSDgjkHAKURWe3l3Bescdd3hThcgMVcyiHAm+DKfRF9Ij4YxAwilEVS655BK/YKUZSYhsCAon/YGFKAeCn2zt06ePN1WEIeEMMHfuXDNp0iSbVl55ZZuB1lhjDX/avHnzvCWFqAyWLFlipkyZYiZPnmw6duzoF6xnn322GT9+vHniiSe8JYUIh7wzYcIE06tXLz//nHjiiXY6eevPP//0lhQiOcycOdNMnz69Slejtm3bmnHjxtkxZ3/55RdvSeGQcAZ47LHH/IwTlp566ilvSSEqg7///ts0bdo09H4g7bvvvt6SQoSz//77h+YdUpMmTWweEyJpHH744aF5mrThhhuaZcuWeUsKh4QzwG+//eY3paem+vXr22iPEJVG8AtDqen666/3lhIinJtvvjk075D0TXWRVB588MHQPE0688wzvaVEEAlnCscff3xoBurcubO3hBCVxezZs0PvieWWW858/fXX3lJChLNgwQKz/PLLh+ahWbNmeUsJkSx+/fXXyAAVXUVEdSScKTz88MOhGejJJ5/0lhCisqDJs1mzZtXuiT322MNbQoj07LPPPtXyj5rTRdKhL3Jqvua9D/VLDkfCmQLN6quttlqVDLTWWmspA4mKJvgddZeuvPJKb64Q6Ql+b9olNaeLpDNx4sRq+ZpWUhGOhDOEY445pkoG6tSpkzdHiMpkzpw5Ve4J0ueff+7NFSI9X331le2CEcw/ak4XSYdAFO93BPP1Aw884M0VqUg4QwiOq0XiKUaISoamz+bNm/v3xE477eTNESIzdt99dz//qDldlAtdunTx8/VKK61kFi1a5M0RqUg4Q2D8rFVWWcVmIPpj/PHHH94cISoXvg7jCtYRI0Z4U4XIjNGjR/v5R83polyYNm2an68PPvhgb6oIQ8IZwVFHHWUzUIcOHbwpQlQ2b731ll+wfvTRR95UITLjs88+8/OPmtNFubB06VI77ib5miHARDQSzgj4UgAZ6PHHH/emCFHZ0ATaokULs91223lThMgOumKoOV2UGz169NAwcRlQK+F87bXXzOWXX26b1co18d1o3la/9NJLQ+eXS+I6cj1FfuEjAQwMHHbOk5zatGljvxwTNi/JiY7+hRyJgvzBNsP2pZwTTY5777136LxyTnxHnhFQyg0+9zxq1KjQY66k1K1bN7PpppuGzqu0NGbMmMjPemYtnGSw1LcNlZKd6tSpY7744gvvCot8wINK2LlWKt00fPhw7+rFT/D7y0qVkfr06eNd/fJg8eLFpl69eqHHqlTZKepLS1kLZ7rPOSklN6nrQH5xfYCVkpOOPPJI7+rFT7t27UL3Qal8E5HdcuKNN94IPU4lpe23397LJVXJSTjr1q1r3zxUSmYKZhAJZ34JCufJJ59sB0lXKr3EtXHXqVjCeeqpp4bum1LyU69evfzrXO7CGVbHKFVOGjRokJ8XYhHO888/35sqkkjPnj39aynhzC9B4Xz99de9qaLU4Nq461Qs4WRQfVGeBN/ML2fhPOKII7ypolL58ccf/fwg4RTVkHDGh4QzGUg4RZxIOEWlIOEUaZFwxoeEMxlIOEWcSDhFpSDhFGmRcMaHhDMZSDhFnEg4RaUg4RRpkXDGh4QzGUg4RZxIOEWlIOEUaZFwxoeEMxlIOEWcSDhFpSDhFGmRcMaHhDMZSDhFnEg4RaUg4RRpkXDGh4QzGUg4RZxIOEWlIOEUaZFwxoeEMxlIOEWcSDhFpSDhFGmRcMaHhDMZSDhFnEg4RaUg4RRpkXDGh4QzGUg4RZxIOEWlIOEUaZFwxoeEMxlIOEWcSDhFpSDhFGmRcMaHhDMZSDhFnEg4RaUg4RRpkXDGh4QzGUg4RZxIOEWlIOEUaZFwxoeEMxlIOEWcSDhFpSDhFGmRcMaHhDMZSDhFnEg4RaUg4RRpkXDGh4QzGUg4RZxIOEWlIOEUaZFwxoeEMxlIOEWcSDgLw19//WWOPvpof39S07rrrmteeeUVb2kRBxJOkRYJZ3zkIpx///23GTVqlNlmm23MyiuvbAvLZ555xs776quvTPPmze1611tvPTNr1iw7fenSpeaxxx4z+++/v6lfv77ZaKONzBlnnGFee+01c9ddd9n5brmHH37Y7LHHHmb11Ve3699yyy3N8OHDzc8//2yXyYWXX37ZrLPOOv6xL7fccqZu3bqmadOmpnfv3ubLL7/0lqzOiy++aMuXKDI9xmwoFeH86KOPTKNGjfxpqWmfffbxfhkvM2bMMJtttpkZPHiwWbZsmTc1v8ybN89ssskmNm906tSpynbIg1yHZs2a2fnk02+//dbOo4wiv3I+9ttvP7N48WI7Hdw6g+dshRVWMGuttZY54IAD/PskLsi75Em2i/ggQCDhLByc84svvtgsv/zyZrfddjM//PCDLRMoc4YNG6YH/5hJlHC+//77ZuONN/bXvd1225lvvvnGm/sP999/v628mO8Kq3SkK9gcVO6XXHKJLWSfffZZb2o4S5YssTcW2//Xv/5lvvjiC/P999/bCrBNmzZm4cKF3pLJQMIZH/mIcL755ptm6623tgVoq1atzOeff26nU5B27drVzoc//vjD9OrVy6y00ko2L/Ik/8svv5iZM2fa/Hr88cfbgpcCmbxOpU1+fe+992ye7devn53Wtm1bm59zBXn697//bSv8m2++2Uoyssm9u+2229r7MhX27fTTT7ditWjRIm/q/8j0GLOllCKc3333ndlrr73s9R44cKAtmzhu9nHQoEF2mXzDOeMaIUbw/PPPm0033TRW4YQJEyaYVVZZJbJcvuGGG+yDC3no7LPPNn/++aedznXv1q2b+emnn+zfQebPn2922WUX+5vrr7/eHlPHjh3t+dxxxx3NggULvCXjYcqUKfYhTsJZPG6//XZ7/Z1wisKRuAjn119/bf7zn//YSmXVVVetIkEUOBQ8FEIUIFdccUVGFUxYwUYle9VVV9nfU6hfdNFFtpCtSTiBQo3K1AknlQSV97777ivhFD75EM7Zs2ebG2+80bRu3drmefLwb7/9ZvMx010FOmbMGCuMLVu2tHIXhEL3uuuus3mdKCkRn/XXX79KxAfB476rU6eOFVLuiSioZE444YQq0aVUkNZdd93VFvy33HKLnYYcHnzwwfbhr0uXLvbhLcgnn3xidthhB1OvXj1bcaeS6TFmSykJJ2Xc4YcfXkU444T18xDPQ83HH3/sTS0MNQkn+3Xttdfa6P5qq61mI9hAHUGeCjs3v/76qznooINsvuP+gMmTJ9vfN2zY0AY14kTCWXyCwkld/cgjj5jx48fbeTyk8EDnrsWIESNsvc+9BtyHRMPJc9SNlFnAvUF5TtlJPX/33XebCy+80F7jc845x5ZpBLbwB1qf+Pvkk0/283Xqeik7+/fvb+/zBg0a2AfpLbbYwrZocU4dlNHsLy601VZbmSeffNIuy/o5BsrYt99+27ZQrbHGGn4rWLFInHBSYBAS33nnne1J7dy5s3/jfvjhh/YpnxNPxZiu6S1IasHGNmiGO+6442pVQaUKZ5wgxYh1XEg44yNfwvnoo4+al156yTYfI1xUwuRbJ5wUonvuuactvCgEoySFvH/mmWfa+4pCLBgh4jdEOVnHTjvtZB+ioqitcAL5mW1QuH766afe1H+2T5Mk83nYpLB2ES3I9BhrQ6kK54ABA+wD7OjRo23EGMgH7oG7b9++5pRTTvEflOfOnWujvLQSUUEddthhftSS/HLrrbeazTff3MoX2+D8k4fWXHNNuw+skwgz+Yw84spLHgyuvvpqW6GybZah5cldY37Lv5TVdPE46aST/LyVbp8yEc53333XdvVYccUVbQsUEf1MhdNFOE888UQbWT/vvPNstJjf0S2Dh7i1117bHhP1CvM4Vppemc45cPcC5w/JaNGihT3f7Jvb/tNPP21FgWMk33KcEs7i4YTT7Rf/Z5oDiSOfks8feOABc8wxx9jrT7M7rarkF7oF0QWIfMbDLK0uXHvKY5Zlnccee6zNF9yjRM+5P3AUl6+dcEatFzmjuwjl3dChQ+29SD7t0aOHzVt4BtLG/UM3F8pM5pH/KTu4J+h2xbITJ060rRS18Zl8kkjhpNK58sor7QnlJLsnb4ToiSeesE1yTjg52TU9YQQLNgpJCkSXISlszz33XPs3F56+bVx4/mb79BOiXw6FDAWOywhOOMlgruIICmjYk1K6yiIKCWdyyadwku9oYkQ4N9hgA9vs6YSTZnEKT/IsUcAouLcOPPBAuz9UDqkRRieD3EdhTd6OXISTaAP3GfcBha+D4+D+4F6nQKbydhIGmR5jbShF4XTTSUTmPvjgAzsfKA84D0SkuWep7ChDuH6UJ4g7DyWUkbTckHcmTZpkK1mk85prrrH/Zxp9I6kM6TvqyllkjHzmRPChhx6yUechQ4bYim/DDTe08xC0F154wZaP7CPRPUSLCB9RRbabbp8yEU4ikuQz7iXKdMpjIjo1CWfw/FGJO0kG+ohy7umWgQwccsgh9hg4FvIZ54L9ZjuU0/yOCBmRqNtuu83ed5T1yDDnjPqGa8Dfp512mr2HJJzFIxjhpD6mTievOZxw4hHBLnvIJ/nxjjvu8COh3Iv8nocIHqjIpzgIf2cqnFHrZdsIJ/cTeY17hnvHBcLc78hvqbz66qv2GNguPnLnnXda2Ss2iRVObnykjsqJC/X777/bm50bPCicUNMFTy3YXBMLTzZcWKadeuqpvnDyN8tScFCAUJAQcaUSRABSI5zuJQ73d9QTDYRVFs8995ydFwbnQsKZTPIpnEBTOg8p5EvyI0/aiBrL0EROvuIpNwruISpX9idMOIlisW4EgebtIORf1u+OJ5gQ4KAcQpRwcixhwkllz73D/XjWWWfZ39GH0ElFpsdYG0o1wkmTG9EMHr5dhBNcGUL3olTp4vdjx471o3zc31xn+jEi7O+884635D/UJJzkGfIxFSFCSbSPqB9lLdFLJ5zkK8puIjA8qN933312XRC2T9kIJyDcRJgo9ynXiV6mE062g+DyMtnuu+9uZZUoJPWDg2PnHqLsdseHHPI3ZfZTTz1lt4E4dujQwX8Q48HIyfu9995r8zMtZhyDmtSLT019OJ1wpvYVpyWB+84dD4n+wHQxYn19+vSx+cFdYyec3BPp/CNqvdxvQeFMzTsjR460+Z37PxXuS8oqtsNyyGnY/VBoEiucPNXydMmFogCmwqF/Ak8FhRJOCl0KXy4kUVS2edNNN9UonFFPNEQE0lUWwDLBiig10QcO8cgXEs74yLdwAvmLG5n7gv6OCCf5kW4mTON+jCp4mO76/5Ang4Ut8y644AK7DpquXZNoGLlEOF3rQbBJnYgT0Sb2y50vEoLg+mpmeoy1oVSFM6oPJ2UIZdFll11WZT6VKw+5lHtEgVkGAeT8EhlE2N1LZo6ahJN1kldoCSKKynWlsuSBAfFKFU7KE7ZLaxBE7RP7nY1wAlFG+tCRf3gBLezcBIXTRYY4Zip1zqmrvBFR7iP2iYgS9QH1AkydOtXmT6JYyAbHQGuVu1Yk1kUXFGSCbXFfsT8SzuKTqXDSFzM4Kgf1NQ6Qel+Rj8i3rs5OFU53T7gHklT/iFqva1KPEk53v1DWUi6k4iKvTZo0qXZfF4vECif/kjEoJLkgFBQ87YcJZ01PGPkQTtdvg2almoQz6omGjBlVWUShCGdyiUM4Ydq0abZ5j5dnEE7yK/cheY58ltr/kgey6dOn2/yGINDNg6gklYWDggLR5B4g0pmO2gonD1MU0oglLQcuwsqDJA9pDhdloimUyBhkc4zZklTh5IUHN59/KZt4cYDyDVljGeSO805e5Hw6EXTUJJw83CIS7oUE8hujJbgXcKKEkxd80u0T87IVTspqzgkRVAIAYecmTDgpn4mOck4vv/xy+zCF+HHclOWpwglM55xxbNxv/J/7JnUcR2SC/aH+4BgknMWFPOKGReIBNbWlBqKEk5ZMWneIbtN1hPuB5nOuOeUljkGknfVzzZ1wujxH/iAq7rpVOP+IWi9lVjrhZFs8+PCQdc8999iWU7okcT8Dv6e1gSAU+1AKJFo4ObEUBhQevCjAxQsTzpqeMFILNi5stsJJP0+2SXNeTcIZ9UQDYZVFOiScySVX4SQfksfJ+8EChek0o9CsjgAAD2MUoOQt8i5NsDS7IGHsh3t7kfzOb7kfDj30ULsc9w/bIL8jksFCOIxMhJOCnjcnKXjJ61TydHCnQOX+dX1EKYyRFfokOShsu3fvbn/LOpyMZXqM2VJKwolII/5IOcNeucolSFgZwjmjouK60tRLecb5c0299PHi+iKLb731lo3wUfmxPSotHux5sEEgg8LJb2k25rrxYgN9h6l8iVpy7tMJZ037lE44WRcv+bAvwXlUaGzLRRRToX6gLmA79BUlb/Mvsk39QN6lwkewEQAkk7Kc/WB/GHaMOo0uXQgvMkCXJx6aWAeSwTIcN/kGUWBdyA3XEBGmvpJwFh6X39z+kMib9B92uBZH5nGPBfMe+QmhY/xXIvp0X0LqmE93Ph6yqOMp+8gvTjiBvMN88hj7QF7hPnBN3anrpdx2b6mzL4gnD0D8n/zjXnIifzKCBH2oWS95ycF6KcuDLUjFJnHCyQmlQHInlmYUbmjX34s+SI0bN7YXhagnmYHCKd0TRmrBxhMrT900k3BBadoLE062wVu99FXijUYyFIVKTcIZ9UTDDSHhrBxyEU7yBm/nugKJQjLYzM1LaDzQOOEE5pNXaGonf/Ombfv27e0TfRDyN/mR/M8yPHwRLeVlkqDY1hbuVZpc3bFTsBMRoMCl2R5xBBctYxme4mmy5bhd0777PfeWa1rP9BizoVSEE4GmrHPTSKndG9yLh8xz5ZUDyaOfJm+C89BLdASZpDxCDok2EtlBoi699FI7jbxAf0imE1ll/fRVZ/2Uf0QJibpSsTGdc45scj1cFNsty8uY7o13ykoiNFH7xPAuVM4sy7Wmv6WDBx76uLt57HewrETyyKup5ScPMW6dLvF7zhd5xEUnyePUERwP/fLoK4yYUO9wDdhn6gPOCSMFIP38hnxJHcM2GIKL8px9oL8q5T3XjpeTuJ/YLm+7M1/CWV6kNqkXC/IWLhbsl1xsEiWcNJ+4wo4mQyoR+mBQsXLDE8GgwHPbdk8oEPWEgbClFmycFApNCg+aWOiXSYHJMhSORABYLwU6FRB9JJBcmqMofLix3D5QaRMpcn9TsNIMFfaklK6yKBYSzvjINcIpCkMpRThF+SHhLC+KLZy0BvEQzqglPHi5SHopkLgIZyngIpyuSb2ckXDGh4QzGUg4RZxIOMsHWmFojeF4CWAFR9IoFLRY0C2JVp7UUSeKjYSzFkg4RT6QcCYDCaeIEwmnqBQknLXADd3C8aW+vVhuSDjjQ8KZDCScIk4knKJSkHCKtEg440PCmQwknCJOJJyiUpBwirRIOONDwpkMJJwiTiScolKQcIq0SDjjQ8KZDCScIk4qTTgZySWYt3mjm2GwgjBOL8MIumXckIJR8JEI1l/TsgxDuNlmm9mXeXgXIx1uGC032g1vnPNlKX7Py0H5gpeK4lhvcP8Zxqum480XDNPGcG1cC4YCYygxh4RTpEXCGR8SzmQg4RRxUokRTgSRMUyRTYSIMU6DQwiNGzfOjsnKPD5rGxxrNorU8a+BdfIxFs4x8GECxkTNRDghOEY36+IjAfw+VzFkGESGZGSdCGe+1puK+0hDIYUTgl8oKxnhDI6rSWIH+RJEEL7mwJiZzHdPGgwoTCZs06aNvXClQtiA1uw7A7zzbV8+PeXI5kkraln3ZMTwC7zExIDE+UbCGR8SzmQg4RRxUqlN6nxlh6/yUHcxbqSTQj4kwIdP+IogdRtjYmciS6nCSf2IP/AlHvdZ1mxJ/ShMPmDMcASb4wtKdhxIOFPgqyJ8NYKBzvnQfFBqyHh8EB+JI+PxBREuEJ9bQzb5jF0pCSdwcsn03EQ8WfHFDWQT8Qx+si+bJ610y3JTIYXuc3H5RsIZHxLOZCDhFHFSqcKJJyCdSAn1I59IBb5ANXbsWNOtW7cqwslXAomIUrfyaUckiqAOkVAEMyicnFNGk3FftmI9fOWJD7e4wBUfcHF/8yU1pJflcQ73+d6gcLoPwAQ/ykLwi68N8kUzvjxFAIguA3x98Pjjj7cBNbyGD76wTwgXX9xiPewX2+Oz2KnrJfDGlxCZz/HxtS+iwnxGlXE+OR6+hkV+4VOyHCsukIoTTj6NSZAOl+KTuHwwB6L2E/gkMOeEbfFBHb7ACESb+XQs26XpnMAhcA2o0zgXfFyH61Bywont87F7vvvMhe/cubM/Mj6fZBo0aJD9Di1CxXqLSSafkXSfcyMDuW+Y8plBPqDP8XXp0sVmnHwh4UwuEs5kIOEUcVLJwsm9RZ1I3XjMMcdYWZs4caL9PCniFxRO6jo+NUpdh5AimFtuuWWocPJ3MMrmIpxOwFzEEsFD9IiCsi98n5+/+UIPBIUTL0FynRjyN9/GZ3u0blI2IFHsB65AkIjvtPP1QvaZZnOOgWEUGU6R4yWAxn4E10ugjXOCwCJ9RHsRbYSc37Me/OLAAw+0TfC0fnKcHG8q7njJV/jUhRdeaD8jzKdrWVfUfvJZW8qfQw45xH7am31AODlmHgRoteWLRtRhJCSULyYiw5wzrg+SWpLCyUHz3XNOBJnHZQ4Eh286Exl0whnscMyF5mTwCSm3vW222cbKKxmVj99zUims+cQkn6pEoBBA9xlJluvbt689WTX1oaitcAK/ZVscH5/g5InCPWk9/fTT/ic5eaJhPk89LE9GDC5L5uQc8DlPnjA4VjJeUDjJxHxms0WLFvaYaFbgQvO9bbZB5iMDMW/gwIH2N1FIOONDwpkMJJwiTipZOIkyIjLUe7zgwueq+fY8wlNI4XRNzi6K2rZtW7t8OuHEPdg2UUH2NxXEkf086KCDrA9Ql2YinER42WeirhyDOz+cP7aDEHIO+F4/kVCOEelkf1JJbVLHNerVq2ejnY6w/SQoxm9YFtfgc9zgjplykN8NGTLE7uvUqVPN5ptvbq8H16Fkm9SdcL733ns2s3DS77jjDntib7vtNptRgsIJNFMT6nUZi76RRBBZhouBYPEdUcSSeRw4mZanEMzciSDyyAmmSR+Z2nHHHW3IOopchJNvp3NsSC77Ecz4XFxC4mRCLjr7zYUdNmyYWbRoUbWbhONjWaSUyhDJZntOOMePH2+/Nc/5Y72cJz53xc3MUxPNCDRlkOGJIKdDwhkfEs5kIOEUcVLpwrl48WIrQNTfPXr0sPUjYlYM4eR9CZqECc5AOuF09SnBLDwmCE3W7DfN4mPGjPGPLRPhdO+C7LLLLtYnCIIROWSfELagcIYdY5BU4XTrat26tZ2fbj9xJ8SbafgV3sX1XH/99f1rSmJ9t956q53eqlUrs2DBgtIXTjIdkUYy2OGHH25mz55tI30YfE3CCSzfsGFDe6FcX09ArMgwSCxhXy4a6ydK6ISTjM0JTiUYTQ1LXARn/o4o4Xz00UcjhZOM4PaNKOwrr7xinxi4uBBclqcKOlpzTNwM7DdSyPlBOLkpOnToYJ8W6S9KJJebggzhbhDOZ+rLWVFIOONDwpkMJJwiTipdOIH6mX6cSBbvZVCvhQlnv379bF3H8nEIJ/UuUT3uPUgnnC4S2aRJE9tc7WA/ifzRaolcEiAKityUKVPSCif9Kqm/CYBxLoi6sk94S2qEM0rsHO546arIdiZNmmT7atJvs6b9BHwDT2L7tIa6Y95nn31sMMzhpjdr1syKaskLJ/8iRFjyhhtuaJvYeaEoU+HkwvFyDqLHNjm5MHr0aJtp3f6Q3JMDJ5L1EjJ2JzgduUQ43ecwuTmIXqZmfCADkenoX0GU0slscFk6M/M0SNif8Dj7HRROoqM8cQWPl+PnRnXCmZpZ0iHhjA8JZzKQcIo4qUThdOJEf03qMOp06vmhQ4fav/EBhIyuZHQZc/XV1Vdfbbve8XLOnXfeaUUoSjh5uXinnXayTkHA54UXXogUTiJz7CtShfjSnxHSCScBKWSYep0Xh3AVjocxRHlpht8R6OE31MG8mc42aSJH8qinET18IHW9bI8uc/ThHD58uBVUorqcm9oIJxHNzz//3LaK0jzPfnI8UftJqyvbQY5d6zNdFHES6i32h2tBNBNX4Ri4vngJ4spx1K9fv7SFkxPNUAFcQDq3cnGyEU7E0fUFcQU0T0JcyDCpdMJJf8bUeWHUVjg5LvqZcvPwZhkXM0w4uTDcPPTd4OZwBJflRuWC8zc3EfsdFE6eSJjvIqVBnHDydr97C68mJJzxIeFMBhJOESeVJpzBlkME5/LLL7d1IEEZXhYiqkd0z/2O5Op6zhXnCGEj4ucGNqd+Zf1ueVofCb7wdjd1HsvS2ueGYaR+ZntOOAlC8SY3LZBEVqkf3cDpLM9+EhXkd/xNt7R33nnH7g9lAqKF+CGQQF3MMvTvxEGo15FfurYhXYgqdTTH7t5+D64Xx2EZhJqWW7yDut29pe6W5ZjZN/7mGFkmCAPqE8VEpBFAuhQirq4FOGo/uQ68pETgj/mcT44VOC90/eOYeYeEFltATN216dixo90W+xUMcBVdODkIjNodDLaMFbuD4OQ3btzYXhAOnoyZKpxkLCKZXDhOLPLFCWEeF5iXYzh4+mcQWudFJOw+DuHk6YYwP5mA9dJUPmrUKHtxEGc3LFKYcJIJunfvbt+YC47Zmbosx8lTGMM8kDG46JwfMg8gusznJuSpBnml0pRwlhYSzmQg4RRxQt3nrnMlNamXAk44ie65eljER1GFMzjwOy+5IER0YiUaScSTPpzYslsXTzL0TwwWxIceeqhfcRMZDD4Z7bffflaseGGHvgVEP3kbnSco95Y6y7lQdq64zr5u++wv4X+2fcEFF9guAhA8bvek5WDMzWA0NmxZ+rsighwP/T45B2yLJ6aZM2fac8f2+JsnNELvNC+wrNuvoOimQ8IZHxLOZCDhFHEi4SweEs7CUvQIpyhtJJzxIeFMBhJOEScSzuJA6ynNxewbQZjgyzIiHiScIi0SzviQcCYDCaeIEwmnqBQknCItEs74CAonIzPQMVup9BLXxl2nYgknXWPC9k0p+Ykv6bnrLOEU5YyEU6RFwhkfjMjgzq1SMhIv4hUK5DZsH5TKN7Vp08a7+uWBhFMEkXCKtEg444OX2RglwZ1fpdJOvFwwbtw47+rFD+Wo8kflJF4KZTzEckLCKYJIOEVaJJzxwsC9FMpKpZ8Y5LjQMA5x2L4olV9i4PJyg+Ny9YeEU0g4RVoknEIIIWqDhFMEkXCKtEg4hRBC1AYJpwgi4RRpkXAKIYSoDRJOEUTCKdIi4RRCCFEbJJwiiIRTpEXCKYQQojZIOEUQCadIi4RTCCFEbZBwiiASTpEWCacQQojaIOEUQSScIi0STiGEELVBwimCSDhFWiScQgghaoOEUwSRcIq0SDiFEELUBgmnCCLhFGmRcAohhKgNEk4RRMIp0iLhFEIIURuCwtmkSRPz5ptvKlVwmj59up8fJJyiGhJOIYQQtSEonEpKwSThFNWQcAohhKgN33zzjalTp45fhygpudSuXTsvl1QlJ+Ekde3aVSmhKXgdJZxCCCGy4a677jKHHXaYOeigg5SUbOrUqZN5//33vRxSlayFc9y4cVVERak80oQJE7wrLIQQQgiRX7IWzgULFphVV101VFqUkpnq1atnvvvuO+8KCyGEEELkl6yFExYuXGgmTpxoo2JKyU5cxx9++MG7skIIIYQQ+adWwimEEEIIIUSmSDiFEEIIIUSsSDiFEEIIIUSsSDiFEEIIIUSsSDiFEEIIIUSMGPP/AaWs/u3liw2FAAAAAElFTkSuQmCC;" vertex="1" parent="1">
          <mxGeometry width="668" height="343" as="geometry" />
        </mxCell>
      </root>
    </mxGraphModel>
  </diagram>
</mxfile>
